name ./resultDataOpenSim/trcMotMarkerGrf/sub10/grf-14-02.mot
datacolumns 19
datarows 17
range 0.48800000 0.55200000
endheader

                time	     ground_force_vx	     ground_force_vy	     ground_force_vz	     ground_force_px	     ground_force_py	     ground_force_pz	   l_ground_force_vx	   l_ground_force_vy	   l_ground_force_vz	   l_ground_force_px	   l_ground_force_py	   l_ground_force_pz	     ground_torque_x	     ground_torque_y	     ground_torque_z	   l_ground_torque_x	   l_ground_torque_y	   l_ground_torque_z	
          0.48800000	         56.33848883	        522.85178060	        -32.37896762	         -0.73876443	          0.00000000	          0.00810644	          0.00000000	          0.00000000	          0.00000000	          0.00000000	          0.00000000	          0.00000000	          0.00000000	          4.02688568	          0.00000000	          0.00000000	          0.00000000	          0.00000000	
          0.49200000	         60.57232229	        538.51817223	        -33.51781688	         -0.73694546	          0.00000000	          0.00813056	          0.00000000	          0.00000000	          0.00000000	          0.00000000	          0.00000000	          0.00000000	          0.00000000	          4.03717527	          0.00000000	          0.00000000	          0.00000000	          0.00000000	
          0.49600000	         64.29162525	        555.49748708	        -34.33635687	         -0.73506391	          0.00000000	          0.00810596	          0.00000000	          0.00000000	          0.00000000	          0.00000000	          0.00000000	          0.00000000	          0.00000000	          4.07343457	          0.00000000	          0.00000000	          0.00000000	          0.00000000	
          0.50000000	         67.26419382	        573.48575236	        -34.93628392	         -0.73304429	          0.00000000	          0.00803388	          0.00000000	          0.00000000	          0.00000000	          0.00000000	          0.00000000	          0.00000000	          0.00000000	          4.12039914	          0.00000000	          0.00000000	          0.00000000	          0.00000000	
          0.50400000	         69.44932358	        592.05587674	        -35.44678683	         -0.73075848	          0.00000000	          0.00792923	          0.00000000	          0.00000000	          0.00000000	          0.00000000	          0.00000000	          0.00000000	          0.00000000	          4.15772404	          0.00000000	          0.00000000	          0.00000000	          0.00000000	
          0.50800000	         71.01960455	        610.96040186	        -36.00748484	         -0.72822128	          0.00000000	          0.00780221	          0.00000000	          0.00000000	          0.00000000	          0.00000000	          0.00000000	          0.00000000	          0.00000000	          4.16489154	          0.00000000	          0.00000000	          0.00000000	          0.00000000	
          0.51200000	         72.34348008	        630.22744097	        -36.73144275	         -0.72560774	          0.00000000	          0.00764517	          0.00000000	          0.00000000	          0.00000000	          0.00000000	          0.00000000	          0.00000000	          0.00000000	          4.12600021	          0.00000000	          0.00000000	          0.00000000	          0.00000000	
          0.51600000	         73.86606566	        649.96732170	        -37.66704027	         -0.72311938	          0.00000000	          0.00745546	          0.00000000	          0.00000000	          0.00000000	          0.00000000	          0.00000000	          0.00000000	          0.00000000	          4.03329693	          0.00000000	          0.00000000	          0.00000000	          0.00000000	
          0.52000000	         75.94862609	        670.12457219	        -38.77708229	         -0.72083423	          0.00000000	          0.00723666	          0.00000000	          0.00000000	          0.00000000	          0.00000000	          0.00000000	          0.00000000	          0.00000000	          3.88900423	          0.00000000	          0.00000000	          0.00000000	          0.00000000	
          0.52400000	         78.78692193	        690.43765548	        -39.94514962	         -0.71870059	          0.00000000	          0.00698521	          0.00000000	          0.00000000	          0.00000000	          0.00000000	          0.00000000	          0.00000000	          0.00000000	          3.70539110	          0.00000000	          0.00000000	          0.00000000	          0.00000000	
          0.52800000	         82.42025603	        710.63970803	        -41.00872743	         -0.71665526	          0.00000000	          0.00669204	          0.00000000	          0.00000000	          0.00000000	          0.00000000	          0.00000000	          0.00000000	          0.00000000	          3.50305044	          0.00000000	          0.00000000	          0.00000000	          0.00000000	
          0.53200000	         86.75937249	        730.65971602	        -41.78332813	         -0.71473877	          0.00000000	          0.00634307	          0.00000000	          0.00000000	          0.00000000	          0.00000000	          0.00000000	          0.00000000	          0.00000000	          3.30748708	          0.00000000	          0.00000000	          0.00000000	          0.00000000	
          0.53600000	         91.61049935	        750.57199773	        -42.06722850	         -0.71305455	          0.00000000	          0.00592395	          0.00000000	          0.00000000	          0.00000000	          0.00000000	          0.00000000	          0.00000000	          0.00000000	          3.14458346	          0.00000000	          0.00000000	          0.00000000	          0.00000000	
          0.54000000	         96.72075168	        770.34481310	        -41.66504051	         -0.71164699	          0.00000000	          0.00542574	          0.00000000	          0.00000000	          0.00000000	          0.00000000	          0.00000000	          0.00000000	          0.00000000	          3.03597792	          0.00000000	          0.00000000	          0.00000000	          0.00000000	
          0.54400000	        101.85532392	        789.68872587	        -40.43698420	         -0.71044427	          0.00000000	          0.00484598	          0.00000000	          0.00000000	          0.00000000	          0.00000000	          0.00000000	          0.00000000	          0.00000000	          2.99546830	          0.00000000	          0.00000000	          0.00000000	          0.00000000	
          0.54800000	        106.88640485	        808.17430457	        -38.34426572	         -0.70933550	          0.00000000	          0.00418615	          0.00000000	          0.00000000	          0.00000000	          0.00000000	          0.00000000	          0.00000000	          0.00000000	          3.02716205	          0.00000000	          0.00000000	          0.00000000	          0.00000000	
          0.55200000	        111.85047750	        825.45899556	        -35.46507464	         -0.70828032	          0.00000000	          0.00345195	          0.00000000	          0.00000000	          0.00000000	          0.00000000	          0.00000000	          0.00000000	          0.00000000	          3.12552065	          0.00000000	          0.00000000	          0.00000000	          0.00000000	
